<?xml version="1.0" standalone="no"?>
<!DOCTYPE svg PUBLIC "-//W3C//DTD SVG 20010904//EN"
 "http://www.w3.org/TR/2001/REC-SVG-20010904/DTD/svg10.dtd">
<svg version="1.0" xmlns="http://www.w3.org/2000/svg"
 width="260.000000pt" height="300.000000pt" viewBox="0 0 260.000000 300.000000"
 preserveAspectRatio="xMidYMid meet">

<g transform="translate(0.000000,300.000000) scale(0.100000,-0.100000)"
fill="#000000" stroke="none">
<path d="M48 2612 c-10 -2 -18 -5 -18 -7 0 -3 542 -1021 870 -1634 80 -151
151 -276 156 -278 5 -2 49 72 98 163 l88 167 -17 36 c-9 20 -101 193 -204 386
-104 192 -284 530 -401 750 -117 220 -215 403 -219 407 -6 7 -323 16 -353 10z"/>
<path d="M854 2608 c-5 -7 421 -815 441 -836 10 -11 56 69 238 410 124 232
223 425 221 428 -8 7 -895 6 -900 -2z"/>
<path d="M1941 2610 l-63 -5 -89 -165 -89 -165 143 -2 c147 -3 187 -7 187 -22
0 -4 -35 -73 -78 -152 -160 -294 -343 -631 -467 -859 -70 -129 -182 -334 -247
-454 l-120 -219 17 -36 c27 -58 156 -295 164 -304 5 -5 97 160 206 365 216
405 263 494 467 878 489 917 598 1125 595 1134 -3 9 -515 15 -626 6z"/>
</g>
</svg>
